<svg xmlns="http://www.w3.org/2000/svg" viewBox="0 0 512 512" fill="none">
  <!-- App icon: the mark on the dark tile (docs/15-DESIGN.md §brand). -->
  <rect width="512" height="512" rx="112" fill="#141618"/>
  <rect width="512" height="512" rx="112" fill="url(#sheen)"/>
  <g stroke-linecap="round" stroke-linejoin="round" transform="translate(128,128) scale(2)">
    <path d="M64 -20 L136.7 22 L136.7 106 L64 148 L-8.7 106 L-8.7 22 Z"
          transform="translate(0,0)" fill="none" opacity="0"/>
  </g>
  <g stroke-linecap="round" stroke-linejoin="round"
     transform="translate(256,256) scale(1.55) translate(-128,-128)">
    <path d="M128 44 L200.7 86 L200.7 170 L128 212 L55.3 170 L55.3 86 Z"
          fill="url(#mist)"/>
    <g stroke="#3d4042" stroke-width="2.5">
      <path d="M128 44 L128 128 M200.7 86 L128 128 M200.7 170 L128 128
               M128 212 L128 128 M55.3 170 L128 128 M55.3 86 L128 128"/>
      <path d="M128 86 L164.4 107 L164.4 149 L128 170 L91.6 149 L91.6 107 Z"/>
    </g>
    <path d="M128 44 L200.7 86 L200.7 170 L128 212 L55.3 170 L55.3 86 Z"
          stroke="#5c6165" stroke-width="5"/>
    <g stroke="#e05a72" stroke-width="7">
      <path d="M100 78 L100 178"/>
      <path d="M100 128 L158 80"/>
      <path d="M100 128 L158 176"/>
    </g>
  </g>
  <defs>
    <radialGradient id="mist" cx="0.5" cy="0.42" r="0.65">
      <stop offset="0" stop-color="#22262a"/>
      <stop offset="1" stop-color="#141618"/>
    </radialGradient>
    <radialGradient id="sheen" cx="0.5" cy="0.0" r="1.0">
      <stop offset="0" stop-color="#22262a" stop-opacity="0.6"/>
      <stop offset="0.55" stop-color="#141618" stop-opacity="0"/>
    </radialGradient>
  </defs>
</svg>
